<svg xmlns="http://www.w3.org/2000/svg" width="700" height="700" viewBox="0 0 700 700"><path d="M 345.449 78.468 C 344.652 80.375, 344 82.345, 344 82.845 C 344 83.346, 343.350 84.295, 342.555 84.954 C 341.760 85.614, 340.605 88.586, 339.988 91.559 C 339.370 94.533, 338.452 97.221, 337.946 97.533 C 337.440 97.846, 336.293 100.666, 335.397 103.801 C 334.500 106.935, 333.194 110.175, 332.495 111 C 331.795 111.825, 330.899 114.075, 330.503 116 C 330.108 117.925, 328.933 120.903, 327.892 122.618 C 326.851 124.333, 326 126.512, 326 127.460 C 326 128.409, 325.112 130.314, 324.026 131.694 C 322.941 133.074, 321.758 135.845, 321.399 137.851 C 320.667 141.936, 316.934 151.611, 313.958 157.136 C 312.881 159.136, 312 161.747, 312 162.938 C 312 164.129, 311.160 166.768, 310.134 168.802 C 309.108 170.836, 307.133 174.750, 305.746 177.500 C 304.358 180.250, 302.887 184.075, 302.477 186 C 302.067 187.924, 300.931 191.299, 299.954 193.500 C 295.100 204.420, 293 209.933, 293 211.753 C 293 212.854, 292.328 214.313, 291.507 214.994 C 290.686 215.675, 289.526 218.048, 288.928 220.267 C 288.331 222.486, 287.229 224.914, 286.480 225.662 C 285.732 226.411, 284.814 229.156, 284.441 231.762 C 284.068 234.368, 282.951 238.075, 281.958 240 C 278.671 246.375, 275 255.219, 275 256.761 C 275 257.597, 274.133 260.130, 273.072 262.390 C 272.012 264.651, 269.680 269.875, 267.890 274 C 263.605 283.872, 263.830 283.692, 258.252 281.693 C 248.247 278.107, 238 280.211, 238 285.851 C 238 286.869, 236.949 289.682, 235.665 292.101 C 234.380 294.520, 233.026 298.410, 232.654 300.744 C 232.282 303.078, 231.085 306.453, 229.993 308.244 C 228.864 310.095, 228.006 313.276, 228.004 315.615 C 228.001 318.172, 227.264 320.666, 226.056 322.201 C 224.987 323.561, 223.791 327.094, 223.398 330.054 C 222.985 333.174, 221.952 336.079, 220.940 336.967 C 219.815 337.956, 218.821 341.161, 218.140 346 C 216.897 354.822, 217.799 356.500, 223.786 356.500 C 228.566 356.500, 229.132 359.600, 225.960 368.397 C 222.891 376.904, 222.767 377, 214.832 377 C 204.929 377, 203.889 378.301, 199.241 396.500 C 198.679 398.700, 197.743 401.850, 197.161 403.500 C 194.679 410.534, 191.814 419.882, 190.572 425 C 189.838 428.025, 188.509 432.173, 187.618 434.218 C 186.728 436.263, 186 439.680, 186 441.813 C 186 444.391, 185.345 446.283, 184.044 447.460 C 182.929 448.469, 181.801 451.223, 181.421 453.865 C 181.055 456.414, 179.910 460.388, 178.877 462.695 C 177.845 465.002, 176.990 467.702, 176.978 468.695 C 176.966 469.688, 176.106 472.371, 175.068 474.658 C 174.029 476.945, 172.638 481.445, 171.976 484.658 C 171.314 487.871, 170.201 491.625, 169.504 493 C 168.807 494.375, 167.911 497.525, 167.513 500 C 167.114 502.475, 165.966 505.855, 164.960 507.511 C 163.955 509.167, 162.805 512.988, 162.405 516.001 C 162.006 519.015, 160.853 522.835, 159.843 524.490 C 158.833 526.146, 158.006 529.164, 158.004 531.197 C 158.002 533.230, 156.875 537.010, 155.500 539.596 C 154.125 542.182, 152.990 545.918, 152.978 547.899 C 152.966 549.880, 152.044 553.511, 150.929 555.969 C 149.814 558.427, 148.624 562.466, 148.284 564.945 C 147.944 567.423, 146.815 570.894, 145.775 572.657 C 143.352 576.763, 144.211 582.437, 147.589 584.650 C 151.538 587.238, 156.895 585.617, 163.106 579.956 C 166.073 577.252, 170.525 573.242, 173 571.045 C 190.877 555.179, 202.026 545.041, 205.172 541.792 C 207.191 539.706, 209.069 538, 209.345 538 C 209.620 538, 211.137 536.763, 212.714 535.250 C 215.907 532.189, 221.454 527.295, 227.500 522.205 C 231.748 518.628, 239.375 511.456, 258 493.520 C 264.325 487.429, 271.188 481.166, 273.250 479.604 C 275.313 478.041, 277 476.141, 277 475.381 C 277 474.622, 277.365 474, 277.811 474 C 278.571 474, 296.020 458.947, 302.550 452.659 C 328.479 427.690, 335.041 422, 337.909 422 C 339.059 422, 340.900 421.100, 342 420 C 343.846 418.154, 343.999 416.673, 343.991 400.750 C 343.986 391.262, 344.498 373.504, 345.130 361.286 C 346.224 340.110, 346.189 338.942, 344.389 336.286 C 341.867 332.566, 341.914 293.329, 344.450 286.143 C 345.287 283.770, 346.271 277.569, 346.637 272.362 L 347.303 262.896 350.401 263.198 L 353.500 263.500 354.262 280.500 C 354.775 291.967, 355.507 298.569, 356.512 300.784 C 358.951 306.166, 358.626 332.389, 356.079 335.626 C 354.236 337.970, 354.181 339.682, 354.711 378.284 C 355.035 401.813, 355.666 419.008, 356.232 419.724 C 356.765 420.396, 358.701 421.229, 360.535 421.573 C 362.369 421.917, 364.643 423.053, 365.590 424.099 C 366.536 425.145, 367.837 426, 368.480 426 C 369.124 426, 372.864 429.150, 376.791 433 C 380.718 436.850, 384.145 440, 384.405 440 C 384.860 440, 394.423 448.983, 411.021 465 C 415.295 469.125, 421.325 474.750, 424.421 477.500 C 427.517 480.250, 432.418 484.750, 435.312 487.500 C 438.206 490.250, 444.955 496.550, 450.311 501.500 C 455.668 506.450, 463.076 513.357, 466.775 516.848 C 474.084 523.748, 488.675 536.710, 494.524 541.500 C 496.539 543.150, 501.236 547.425, 504.961 551 C 538.777 583.450, 545.127 588.143, 550.986 585.008 C 553.511 583.656, 555.428 577.669, 554.119 575.222 C 553.567 574.190, 552.821 570.906, 552.461 567.923 C 552.101 564.940, 551.023 561.375, 550.065 560 C 549.107 558.625, 548.065 554.986, 547.750 551.912 C 547.436 548.839, 546.238 544.571, 545.089 542.427 C 543.940 540.284, 543 537.381, 543 535.976 C 543 534.572, 542.091 531.640, 540.980 529.461 C 539.869 527.283, 538.691 523.025, 538.364 520 C 538.036 516.975, 536.986 513.124, 536.031 511.443 C 535.076 509.761, 533.965 506.627, 533.562 504.477 C 533.158 502.328, 532.158 499.273, 531.339 497.688 C 530.519 496.104, 529.458 492.713, 528.979 490.154 C 528.194 485.956, 525.708 477.600, 522.833 469.500 C 522.247 467.850, 520.976 463.056, 520.008 458.846 C 519.040 454.636, 517.517 450.148, 516.624 448.873 C 515.731 447.598, 515 445.175, 515 443.489 C 515 441.803, 514.152 438.760, 513.116 436.727 C 512.080 434.695, 510.924 430.887, 510.548 428.266 C 510.172 425.645, 508.995 421.799, 507.932 419.719 C 506.869 417.640, 505.990 414.940, 505.978 413.719 C 505.966 412.499, 505.044 409.489, 503.929 407.031 C 502.814 404.573, 501.641 400.523, 501.322 398.031 C 501.003 395.539, 499.938 392.150, 498.955 390.500 C 497.972 388.850, 496.853 385.801, 496.468 383.726 C 495.498 378.492, 492.924 377, 484.866 377 C 476.094 377, 473.605 374.475, 472.536 364.492 C 471.710 356.777, 471.764 356.680, 477.092 356.408 C 479.314 356.294, 481.440 355.894, 481.816 355.517 C 483.251 354.081, 481.945 341.572, 480.019 338.308 C 478.964 336.520, 477.799 333.448, 477.430 331.480 C 477.061 329.512, 476.104 327.247, 475.303 326.446 C 474.502 325.645, 473.465 322.287, 472.998 318.983 C 472.531 315.679, 471.215 311.466, 470.074 309.620 C 468.933 307.774, 468 304.699, 468 302.787 C 468 300.646, 467.273 298.652, 466.108 297.598 C 464.932 296.533, 463.960 293.839, 463.540 290.474 C 462.179 279.581, 454.176 277.319, 438.814 283.488 C 436.915 284.250, 432.586 278.313, 431.411 273.333 C 431.044 271.775, 429.939 269.150, 428.956 267.500 C 427.972 265.850, 426.863 262.700, 426.490 260.500 C 426.118 258.300, 424.990 255.328, 423.984 253.896 C 422.978 252.463, 421.663 249.538, 421.062 247.396 C 420.460 245.253, 419.300 242.626, 418.484 241.559 C 417.668 240.491, 417 238.189, 417 236.444 C 417 234.698, 416.096 232.121, 414.991 230.716 C 413.886 229.311, 412.696 226.663, 412.345 224.831 C 411.994 222.999, 410.913 219.700, 409.941 217.500 C 408.970 215.300, 407.662 211.848, 407.036 209.830 C 406.410 207.811, 405.246 205.619, 404.449 204.958 C 403.652 204.296, 403 202.566, 403 201.113 C 403 199.659, 402.162 196.902, 401.138 194.985 C 400.114 193.068, 398.534 188.935, 397.625 185.801 C 396.717 182.666, 395.530 179.827, 394.987 179.492 C 394.444 179.156, 393.996 178.121, 393.991 177.191 C 393.986 176.261, 392.875 173.250, 391.522 170.500 C 390.169 167.750, 389.048 164.323, 389.031 162.885 C 389.014 161.447, 388.162 159.197, 387.138 157.885 C 386.113 156.573, 384.925 154.375, 384.498 153 C 384.070 151.625, 382.883 148.932, 381.860 147.015 C 380.837 145.098, 380 142.490, 380 141.219 C 380 139.948, 378.875 136.795, 377.500 134.212 C 376.125 131.629, 375 128.974, 375 128.311 C 375 127.648, 373.875 124.990, 372.500 122.404 C 371.125 119.818, 370 116.744, 370 115.574 C 370 114.403, 369.267 112.398, 368.370 111.118 C 367.474 109.839, 366.333 106.976, 365.834 104.758 C 365.336 102.539, 364.044 99.600, 362.964 98.227 C 361.884 96.854, 361 94.550, 361 93.107 C 361 91.664, 359.875 88.371, 358.500 85.788 C 357.125 83.205, 356 80.428, 356 79.617 C 356 77.211, 353.068 75, 349.878 75 C 347.423 75, 346.643 75.611, 345.449 78.468 M 348.200 105.200 C 347.540 105.860, 347 107.565, 347 108.989 C 347 110.412, 346.100 113.342, 345 115.500 C 343.900 117.658, 342.998 120.115, 342.996 120.961 C 342.994 121.808, 341.646 125.200, 340 128.500 C 338.354 131.800, 337.003 135.175, 336.997 136 C 336.991 136.825, 336.093 138.850, 335 140.500 C 333.907 142.150, 333.010 144.677, 333.007 146.115 C 333.003 147.553, 332.159 149.803, 331.130 151.115 C 330.102 152.427, 328.933 155.075, 328.533 157 C 328.133 158.925, 326.999 161.905, 326.013 163.621 C 325.026 165.338, 323.908 168.587, 323.527 170.842 C 323.146 173.096, 321.971 176.038, 320.917 177.378 C 319.863 178.719, 319 180.591, 319 181.540 C 319 182.488, 318.138 184.667, 317.084 186.382 C 316.030 188.097, 314.835 191.296, 314.427 193.492 C 314.020 195.687, 312.632 199.467, 311.343 201.891 C 310.055 204.315, 309 206.907, 309 207.653 C 309 208.398, 308.100 210.686, 307 212.739 C 305.900 214.791, 305 217.691, 305 219.184 C 305 220.692, 303.890 223.095, 302.500 224.595 C 301.030 226.180, 300 228.485, 300 230.187 C 300 231.778, 299.142 234.300, 298.093 235.790 C 297.045 237.281, 295.883 240.276, 295.511 242.447 C 295.140 244.618, 294.010 247.443, 293.001 248.726 C 291.992 250.009, 290.846 252.958, 290.455 255.279 C 290.064 257.601, 288.902 260.573, 287.872 261.885 C 286.842 263.197, 286 265.310, 286 266.582 C 286 267.854, 284.875 271.010, 283.500 273.596 C 282.125 276.182, 281 279.031, 281 279.926 C 281 280.822, 280.302 282.552, 279.449 283.770 C 278.596 284.988, 277.484 288.525, 276.979 291.630 C 276.473 294.736, 275.374 298.035, 274.535 298.961 C 273.696 299.888, 272.721 302.863, 272.367 305.573 C 272.013 308.283, 271.273 311.375, 270.723 312.444 C 270.172 313.513, 268.702 318.238, 267.454 322.944 C 263.535 337.729, 262.796 340.381, 261.309 345 C 258.269 354.444, 257.609 353.606, 268.663 354.350 C 274.073 354.714, 280.889 355.651, 283.809 356.431 C 291.606 358.515, 319.849 359.604, 320.448 357.843 C 320.699 357.105, 321.366 351.550, 321.930 345.500 C 322.943 334.628, 322.996 334.463, 326.551 331.330 C 331.769 326.731, 333.474 318.724, 335.466 289.452 C 337.025 266.541, 337.214 265.306, 339.821 261.032 C 342.874 256.026, 347.232 254.258, 353.584 255.450 C 359.576 256.574, 361 258.894, 361 267.532 C 361 271.693, 361.621 276.550, 362.387 278.384 C 364.342 283.062, 364.845 287.353, 365.513 305 C 366.255 324.652, 366.414 325.371, 370.802 328.988 C 374.530 332.061, 376.254 337.450, 378.806 354 L 379.500 358.500 394.500 358.201 C 402.750 358.036, 411.975 357.463, 415 356.927 C 418.025 356.391, 424.550 355.457, 429.500 354.852 C 434.450 354.246, 438.913 353.371, 439.418 352.908 C 440.537 351.879, 438.374 341.952, 435.950 337 C 435.008 335.075, 433.905 331.025, 433.498 328 C 433.091 324.975, 431.932 320.397, 430.923 317.826 C 429.914 315.255, 428.801 310.755, 428.448 307.826 C 428.096 304.897, 426.951 301.281, 425.904 299.790 C 424.857 298.300, 424 295.920, 424 294.501 C 424 293.081, 423.100 290.156, 422 288 C 420.900 285.844, 420 283.496, 420 282.782 C 420 282.068, 418.929 279.463, 417.621 276.992 C 416.312 274.521, 414.904 270.475, 414.493 268 C 414.081 265.525, 412.902 262.427, 411.872 261.115 C 410.842 259.803, 410 257.870, 410 256.819 C 410 255.768, 408.875 252.795, 407.500 250.212 C 406.125 247.629, 404.998 244.387, 404.996 243.008 C 404.994 241.629, 404.121 239.070, 403.055 237.323 C 401.990 235.575, 400.805 232.476, 400.422 230.436 C 400.039 228.395, 398.888 225.888, 397.863 224.863 C 396.838 223.838, 396 222.037, 396 220.860 C 396 219.682, 395.050 216.645, 393.890 214.110 C 392.729 211.574, 390.747 207.250, 389.486 204.500 C 388.225 201.750, 386.876 197.925, 386.488 196 C 386.101 194.075, 384.933 191.097, 383.892 189.382 C 382.851 187.667, 382 185.038, 382 183.540 C 382 182.041, 381.151 179.736, 380.113 178.416 C 379.075 177.097, 377.925 174.416, 377.558 172.459 C 377.191 170.502, 375.790 166.831, 374.445 164.301 C 373.100 161.772, 371.997 158.757, 371.993 157.601 C 371.990 156.445, 371.093 154.150, 370 152.500 C 368.907 150.850, 367.996 148.825, 367.975 148 C 367.954 147.175, 366.831 144.250, 365.478 141.500 C 364.125 138.750, 363.011 135.825, 363.003 135 C 362.994 134.175, 362.093 132.150, 361 130.500 C 359.907 128.850, 359.010 126.913, 359.007 126.195 C 359.003 125.477, 358.101 122.917, 357.002 120.505 C 355.904 118.093, 354.496 113.730, 353.875 110.810 C 352.514 104.413, 350.740 102.660, 348.200 105.200 M 245.750 291.080 C 244.744 291.666, 244 293.287, 244 294.895 C 244 296.432, 243.155 298.454, 242.123 299.389 C 240.959 300.442, 240.069 302.929, 239.780 305.936 C 239.504 308.805, 238.434 311.905, 237.157 313.527 C 235.868 315.166, 235 317.698, 235 319.819 C 235 321.771, 234.173 325.198, 233.162 327.434 C 232.150 329.670, 230.774 333.744, 230.102 336.487 C 229.430 339.230, 228.197 342.230, 227.360 343.155 C 224.135 346.718, 225.966 349.445, 232 350.067 C 235.025 350.379, 238.754 351.246, 240.287 351.994 C 243.871 353.744, 245.811 352.052, 246.663 346.431 C 246.991 344.269, 248.045 341.150, 249.005 339.500 C 249.966 337.850, 251.045 334.158, 251.404 331.296 C 251.763 328.434, 252.934 324.159, 254.006 321.796 C 255.079 319.433, 255.966 316.075, 255.978 314.333 C 255.990 312.591, 256.933 308.991, 258.074 306.333 C 259.215 303.675, 260.402 299.375, 260.710 296.777 C 261.238 292.343, 261.107 291.991, 258.571 291.027 C 255.139 289.722, 248.031 289.752, 245.750 291.080 M 444 290.913 C 439.926 291.348, 438.543 291.889, 438.667 293 C 439.288 298.564, 441.433 307.127, 443.067 310.566 C 444.130 312.802, 445 316.089, 445 317.871 C 445 319.652, 445.846 322.998, 446.880 325.305 C 447.914 327.612, 449.070 332.080, 449.450 335.234 C 449.829 338.388, 450.559 341.227, 451.071 341.544 C 451.582 341.860, 452.501 344.103, 453.112 346.529 C 454.691 352.800, 455.947 353.547, 461.654 351.602 C 464.240 350.721, 466.922 350, 467.613 350 C 468.304 350, 470.073 349.543, 471.544 348.983 C 473.831 348.114, 474.029 347.740, 472.915 346.398 C 472.199 345.535, 471.296 342.141, 470.908 338.856 C 470.521 335.571, 469.464 332.065, 468.559 331.066 C 467.655 330.066, 466.650 327.505, 466.328 325.374 C 466.005 323.243, 464.938 320.150, 463.957 318.500 C 462.976 316.850, 461.696 312.893, 461.112 309.706 C 460.529 306.519, 459.365 302.931, 458.526 301.733 C 457.687 300.535, 457 297.945, 457 295.977 C 457 289.979, 456.087 289.623, 444 290.913 M 274.551 379.750 C 239.091 380.006, 236.468 380.147, 234.551 381.895 C 233.163 383.162, 230.245 383.976, 225.519 384.414 C 221.679 384.771, 218.233 385.386, 217.862 385.781 C 216.434 387.299, 212 399.054, 212 401.321 C 212 402.631, 210.875 405.818, 209.500 408.404 C 208.125 410.990, 207 414.551, 207 416.318 C 207 418.084, 206.139 421.137, 205.086 423.101 C 204.033 425.065, 202.855 428.884, 202.468 431.586 C 202.081 434.289, 200.917 437.903, 199.882 439.618 C 198.847 441.333, 198 443.658, 198 444.785 C 198 445.912, 197.159 448.797, 196.130 451.196 C 195.102 453.595, 193.772 457.795, 193.174 460.529 C 192.577 463.263, 191.168 467.283, 190.044 469.461 C 188.920 471.640, 188 474.211, 188 475.174 C 188 476.137, 187.142 479.304, 186.093 482.212 C 185.045 485.121, 183.881 489.300, 183.509 491.500 C 183.136 493.700, 182.198 496.206, 181.424 497.070 C 180.650 497.933, 179.558 501.056, 178.998 504.011 C 178.438 506.965, 177.301 510.418, 176.471 511.684 C 175.642 512.949, 174.671 516.126, 174.313 518.742 C 173.955 521.359, 172.840 524.850, 171.835 526.500 C 170.830 528.150, 170.006 530.867, 170.004 532.539 C 170.002 534.210, 169.089 537.360, 167.976 539.539 C 166.862 541.717, 165.663 545.300, 165.311 547.500 C 164.959 549.700, 163.620 553.480, 162.335 555.899 C 160.114 560.084, 159.284 564, 160.618 564 C 161.303 564, 164.891 560.957, 175.827 551.103 C 179.857 547.471, 184.210 543.600, 185.501 542.500 C 191.443 537.436, 198.674 530.900, 205.770 524.180 C 219.857 510.840, 232.245 499.520, 234.387 498.030 C 235.549 497.221, 239.477 493.621, 243.115 490.030 C 246.753 486.438, 255.001 478.550, 261.442 472.500 C 267.884 466.450, 277.958 456.835, 283.827 451.134 C 289.697 445.432, 296.915 438.603, 299.867 435.958 C 303.977 432.274, 305.639 429.901, 306.965 425.824 C 308.540 420.980, 309.003 420.455, 312.098 420 L 315.500 419.500 316.138 410 C 317.713 386.548, 317.032 378.450, 313.550 379.238 C 312.973 379.368, 295.423 379.599, 274.551 379.750 M 384.322 380.287 C 383.308 381.929, 384.083 417.395, 385.160 418.693 C 385.757 419.412, 387.260 420, 388.500 420 C 391.424 420, 392.653 421.581, 393.553 426.500 C 394.329 430.740, 398.059 435.695, 403.934 440.288 C 409.098 444.326, 421.924 456.061, 433.130 467 C 438.482 472.225, 446.890 480.438, 451.814 485.250 C 456.738 490.063, 461.270 494, 461.884 494 C 462.498 494, 463 494.450, 463 495 C 463 496.174, 464.846 498.042, 471.402 503.500 C 483.802 513.823, 486.566 516.426, 487.431 518.596 C 487.943 519.880, 489.518 521.347, 490.931 521.855 C 492.344 522.364, 497.412 526.611, 502.194 531.293 C 506.976 535.975, 514.626 542.989, 519.194 546.879 C 523.762 550.769, 529.958 556.432, 532.963 559.463 C 538.857 565.409, 541.731 565.604, 538.256 559.823 C 537.157 557.995, 535.997 554.461, 535.678 551.969 C 535.359 549.477, 534.186 545.427, 533.071 542.969 C 531.956 540.511, 531.034 537.428, 531.022 536.118 C 531.010 534.808, 530.099 532.279, 528.999 530.498 C 527.898 528.717, 526.715 525.064, 526.370 522.380 C 526.025 519.696, 524.900 516.097, 523.871 514.382 C 522.842 512.667, 521.998 509.967, 521.996 508.382 C 521.994 506.797, 521.066 503.981, 519.934 502.124 C 518.802 500.267, 517.633 496.442, 517.337 493.624 C 517.041 490.806, 516.017 487.375, 515.062 486 C 514.107 484.625, 513.038 481.700, 512.687 479.500 C 512.336 477.300, 511.138 473.717, 510.024 471.539 C 508.911 469.360, 508 466.304, 508 464.749 C 508 463.193, 507.154 460.251, 506.120 458.210 C 505.086 456.170, 503.907 452.475, 503.500 450 C 503.093 447.525, 501.957 443.914, 500.975 441.977 C 499.994 440.039, 498.870 436.214, 498.477 433.477 C 498.085 430.739, 496.937 427.129, 495.927 425.454 C 494.916 423.778, 493.776 420.403, 493.394 417.954 C 493.011 415.504, 491.866 412.427, 490.849 411.115 C 489.832 409.803, 489 407.419, 489 405.815 C 489 404.212, 488.385 401.686, 487.634 400.200 C 486.883 398.715, 485.718 395.160, 485.046 392.300 C 483.495 385.697, 482.892 385.251, 474.636 384.592 C 470.379 384.252, 466.603 383.300, 464.595 382.059 C 461.553 380.178, 459.285 380.054, 423.092 379.785 C 402.036 379.628, 384.589 379.854, 384.322 380.287" stroke="none" fill="#10c1a4" fill-rule="evenodd"/></svg>
